<?xml version="1.0" standalone="no"?>
<!DOCTYPE svg PUBLIC "-//W3C//DTD SVG 20010904//EN"
 "http://www.w3.org/TR/2001/REC-SVG-20010904/DTD/svg10.dtd">
<svg version="1.0" xmlns="http://www.w3.org/2000/svg"
 width="480.000000pt" height="240.000000pt" viewBox="0 0 480.000000 240.000000"
 preserveAspectRatio="xMidYMid meet">

<g transform="translate(0.000000,240.000000) scale(0.100000,-0.100000)"
fill="#000000" stroke="none">
<path d="M480 1260 l0 -420 1925 0 1925 0 -2 418 -3 417 -1922 3 -1923 2 0
-420z m3828 -5 l-3 -395 -1430 0 -1430 -1 -3 396 -2 395 1435 0 1435 0 -2
-395z m-3448 275 c0 -5 -13 -10 -30 -10 l-30 0 0 -210 c0 -161 3 -219 14 -245
35 -82 146 -99 213 -33 46 46 52 81 53 275 0 181 -7 213 -45 213 -14 0 -25 5
-25 10 0 6 32 10 75 10 41 0 75 -4 75 -9 0 -5 -10 -11 -22 -13 -31 -4 -35 -31
-37 -241 -1 -200 -8 -229 -66 -273 -41 -31 -126 -49 -186 -40 -55 8 -117 46
-147 90 -21 31 -22 42 -22 249 l0 217 -35 0 c-19 0 -35 5 -35 10 0 6 48 10
125 10 77 0 125 -4 125 -10z m428 -466 c42 -29 16 -94 -38 -94 -35 0 -50 17
-50 57 0 49 44 68 88 37z"/>
<path d="M2203 1531 c-134 -61 -200 -242 -143 -395 23 -60 96 -137 155 -162
101 -42 233 16 293 130 24 46 27 62 27 151 0 89 -3 105 -27 151 -63 119 -197
174 -305 125z m167 -20 c14 -10 36 -40 50 -67 23 -45 25 -59 25 -184 0 -128
-1 -138 -28 -193 -35 -71 -65 -92 -128 -91 -63 1 -96 24 -126 91 -46 101 -42
297 9 396 36 71 134 94 198 48z"/>
<path d="M3864 1534 c-51 -18 -113 -79 -145 -142 -17 -34 -25 -68 -27 -123 -4
-67 0 -85 23 -138 31 -67 92 -131 151 -156 112 -47 246 20 308 154 30 66 29
198 -2 258 -69 133 -189 189 -308 147z m117 -4 c45 -13 84 -53 103 -108 36
-101 29 -278 -14 -363 -60 -117 -197 -114 -255 6 -24 48 -26 64 -27 176 0 68
5 143 11 166 14 51 54 101 96 119 37 16 41 16 86 4z"/>
<path d="M1530 1531 c0 -6 16 -11 35 -11 l35 0 0 -265 0 -265 -35 0 c-19 0
-35 -4 -35 -10 0 -6 45 -10 115 -10 70 0 115 4 115 10 0 6 -17 10 -37 10 l-38
0 3 120 3 119 69 0 c53 0 80 5 116 23 67 33 89 67 88 132 0 67 -19 97 -81 127
-42 20 -66 24 -200 27 -109 3 -153 1 -153 -7z m290 -30 c47 -25 66 -91 50
-169 -10 -46 -16 -55 -50 -72 -39 -20 -84 -25 -114 -14 -14 5 -16 27 -16 140
l0 134 48 0 c27 0 62 -8 82 -19z"/>
<path d="M2610 1531 c0 -6 16 -11 35 -11 l35 0 0 -265 0 -265 -35 0 c-19 0
-35 -4 -35 -10 0 -6 45 -10 115 -10 70 0 115 4 115 10 0 6 -18 10 -40 10 l-40
0 0 135 0 135 39 0 c92 0 131 -40 131 -133 0 -53 24 -127 47 -144 20 -15 133
-17 133 -3 0 6 -10 8 -24 4 -37 -9 -56 19 -56 80 0 114 -36 178 -111 193 -30
6 -29 6 22 23 65 22 89 47 96 97 9 67 -11 108 -65 135 -42 20 -65 23 -204 26
-111 3 -158 1 -158 -7z m284 -21 c69 -26 76 -185 9 -221 -14 -7 -51 -14 -82
-14 l-56 0 -3 123 -3 122 55 0 c30 0 66 -4 80 -10z"/>
<path d="M3147 1533 c-4 -3 -6 -40 -6 -82 1 -42 3 -67 6 -56 19 84 24 93 57
109 19 9 59 16 90 16 l56 0 0 -265 0 -265 -39 0 c-22 0 -43 -4 -46 -10 -4 -6
38 -10 119 -10 77 0 126 4 126 10 0 6 -18 10 -40 10 l-40 0 0 265 0 265 51 0
c28 0 66 -7 84 -16 30 -14 36 -23 49 -77 l14 -62 1 88 1 87 -238 0 c-131 0
-242 -3 -245 -7z"/>
</g>
</svg>
